<svg width="100" height="100" viewBox="0 0 100 100" fill="none" xmlns="http://www.w3.org/2000/svg">
<g clipPath="url(#clip0_201_502)">
<path d="M49.9891 99.9997C40.0979 99.9997 30.4287 97.0666 22.2045 91.5713C13.9802 86.076 7.57014 78.2654 3.78492 69.127C-0.00030376 59.9887 -0.99069 49.9332 0.938999 40.232C2.86869 30.5308 7.63178 21.6196 14.626 14.6255C21.6201 7.63129 30.5312 2.8682 40.2324 0.93851C49.9336 -0.991178 59.9892 -0.000792041 69.1275 3.78443C78.2659 7.56965 86.0765 13.9797 91.5718 22.204C97.0671 30.4282 100 40.0974 100 49.9886C99.9885 63.2488 94.7157 75.9625 85.3393 85.3388C75.963 94.7152 63.2493 99.988 49.9891 99.9997ZM49.9891 2.21455C40.535 2.21455 31.2932 5.01831 23.4327 10.2712C15.5721 15.5241 9.44598 22.9902 5.82905 31.7251C2.21211 40.46 1.26688 50.0714 3.11291 59.3435C4.95893 68.6157 9.51328 77.1321 16.1999 83.8157C22.8866 90.4992 31.4051 95.0496 40.6781 96.8913C49.9511 98.7331 59.5621 97.7834 68.2953 94.1624C77.0285 90.5414 84.4918 84.4118 89.741 76.5488C94.9903 68.6859 97.7897 59.4428 97.7854 49.9886C97.7678 37.3197 92.7258 25.1751 83.7654 16.2189C74.805 7.26265 62.658 2.22627 49.9891 2.21455Z" fill="#464646"/>
<circle cx="49.9995" cy="50" r="48.5" fill="white" stroke="#464646"/>
<path d="M72.846 69.0141H47.5747C47.281 69.0141 46.9993 68.8974 46.7916 68.6897C46.584 68.482 46.4673 68.2004 46.4673 67.9066C46.4673 67.6129 46.584 67.3313 46.7916 67.1236C46.9993 66.9159 47.281 66.7992 47.5747 66.7992H72.846C73.094 66.7992 73.3391 66.7457 73.5645 66.6425C73.79 66.5394 73.9906 66.3888 74.1528 66.2012C74.3201 66.0182 74.443 65.7992 74.5122 65.5611C74.5813 65.323 74.5947 65.0722 74.5515 64.828L70.4097 34.8391C70.3511 34.4222 70.1441 34.0405 69.8268 33.7638C69.5095 33.4872 69.1031 33.3342 68.6821 33.333H42.835C42.5413 33.333 42.2596 33.2163 42.0519 33.0086C41.8442 32.801 41.7275 32.5193 41.7275 32.2256C41.7275 31.9319 41.8442 31.6502 42.0519 31.4425C42.2596 31.2348 42.5413 31.1182 42.835 31.1182H68.66C69.6133 31.1241 70.5329 31.4714 71.2522 32.0971C71.9714 32.7229 72.4426 33.5857 72.5802 34.529L76.722 64.5179C76.7909 65.0713 76.7417 65.6331 76.5775 66.166C76.4133 66.699 76.1379 67.191 75.7694 67.6097C75.401 68.0284 74.948 68.3641 74.4402 68.5947C73.9325 68.8253 73.3816 68.9456 72.8239 68.9476L72.846 69.0141Z" fill="#464646"/>
<path d="M29.4132 33.6212L28.6159 32.846L28.04 31.8936C28.5616 31.3875 29.2624 31.1088 29.9891 31.1184H36.0799C36.3736 31.1184 36.6553 31.2351 36.863 31.4428C37.0707 31.6504 37.1873 31.9321 37.1873 32.2258C37.1873 32.5195 37.0707 32.8012 36.863 33.0089C36.6553 33.2166 36.3736 33.3332 36.0799 33.3332H29.9891C29.7676 33.3332 29.7676 33.3332 29.4132 33.6212Z" fill="#464646"/>
<path d="M35.4377 69.0137H26.2461C25.6888 69.0143 25.1379 68.8961 24.6299 68.6669C24.122 68.4378 23.6687 68.103 23.3003 67.6848C22.9304 67.2647 22.6526 66.7717 22.4847 66.2376C22.3169 65.7036 22.2627 65.1403 22.3258 64.5841L24.8286 44.6505C24.8668 44.3568 25.0201 44.0903 25.2547 43.9096C25.3709 43.8201 25.5036 43.7544 25.6452 43.7163C25.7868 43.6781 25.9345 43.6681 26.08 43.6871C26.2254 43.706 26.3657 43.7533 26.4928 43.8264C26.6199 43.8996 26.7314 43.997 26.8209 44.1132C26.9103 44.2294 26.976 44.3621 27.0142 44.5037C27.0524 44.6453 27.0623 44.793 27.0434 44.9384L24.5628 64.872C24.5318 65.1176 24.5533 65.367 24.6258 65.6038C24.6984 65.8405 24.8203 66.0591 24.9836 66.2452C25.1425 66.4294 25.3399 66.5764 25.5619 66.6759C25.7839 66.7754 26.025 66.825 26.2682 66.821H35.4377C35.7314 66.821 36.013 66.9377 36.2207 67.1454C36.4284 67.3531 36.5451 67.6348 36.5451 67.9285C36.5451 68.2222 36.4284 68.5039 36.2207 68.7115C36.013 68.9192 35.7314 69.0359 35.4377 69.0359V69.0137Z" fill="#464646"/>
<path d="M59.2251 69.0144C58.9461 69.0153 58.6771 68.9109 58.4717 68.722C58.2664 68.5331 58.14 68.2737 58.1177 67.9956L55.5706 32.3145C55.5585 32.1672 55.5761 32.019 55.6222 31.8787C55.6683 31.7383 55.742 31.6085 55.839 31.4971C55.936 31.3856 56.0543 31.2947 56.187 31.2297C56.3197 31.1647 56.464 31.1269 56.6116 31.1185C56.9026 31.1116 57.1854 31.2151 57.4032 31.4082C57.6209 31.6013 57.7575 31.8697 57.7854 32.1595L60.3325 67.8184C60.3446 67.9656 60.327 68.1138 60.2809 68.2542C60.2348 68.3946 60.1611 68.5243 60.0641 68.6358C59.9671 68.7473 59.8488 68.8382 59.7161 68.9032C59.5834 68.9682 59.439 69.006 59.2915 69.0144H59.2251Z" fill="#464646"/>
<path d="M31.4733 56.6777H24.563C24.2693 56.6777 23.9876 56.5611 23.7799 56.3534C23.5722 56.1457 23.4556 55.864 23.4556 55.5703C23.4612 55.2784 23.5797 55 23.7862 54.7935C23.9927 54.5871 24.2711 54.4686 24.563 54.4629H31.4733C31.767 54.4629 32.0487 54.5796 32.2563 54.7872C32.464 54.9949 32.5807 55.2766 32.5807 55.5703C32.5807 55.864 32.464 56.1457 32.2563 56.3534C32.0487 56.5611 31.767 56.6777 31.4733 56.6777Z" fill="#464646"/>
<path d="M74.3967 56.6777H44.0977C43.8039 56.6777 43.5223 56.5611 43.3146 56.3534C43.1069 56.1457 42.9902 55.864 42.9902 55.5703C42.9902 55.2766 43.1069 54.9949 43.3146 54.7872C43.5223 54.5796 43.8039 54.4629 44.0977 54.4629H74.3967C74.6904 54.4629 74.972 54.5796 75.1797 54.7872C75.3874 54.9949 75.5041 55.2766 75.5041 55.5703C75.5041 55.864 75.3874 56.1457 75.1797 56.3534C74.972 56.5611 74.6904 56.6777 74.3967 56.6777Z" fill="#464646"/>
<path d="M72.6026 43.7432H41.4619C41.1682 43.7432 40.8865 43.6265 40.6789 43.4188C40.4712 43.2111 40.3545 42.9294 40.3545 42.6357C40.3545 42.342 40.4712 42.0604 40.6789 41.8527C40.8865 41.645 41.1682 41.5283 41.4619 41.5283H72.6026C72.8963 41.5283 73.1779 41.645 73.3856 41.8527C73.5933 42.0604 73.71 42.342 73.71 42.6357C73.71 42.9294 73.5933 43.2111 73.3856 43.4188C73.1779 43.6265 72.8963 43.7432 72.6026 43.7432Z" fill="#464646"/>
<path d="M42.9681 79.5343C41.8831 79.5185 40.8185 79.2371 39.8674 78.7148C39.07 78.3022 38.3645 77.7323 37.7935 77.0395C37.2225 76.3467 36.7978 75.5453 36.5451 74.6838L28.1952 47.6849C23.9427 44.9828 21.5507 41.7492 21.1963 38.0504C20.5318 31.6717 25.9803 26.4446 26.2018 26.2232C26.3415 26.0952 26.511 26.0045 26.6949 25.9593C26.8788 25.914 27.0711 25.9157 27.2542 25.9643C27.4372 26.0128 27.6051 26.1065 27.7425 26.2369C27.8798 26.3673 27.9822 26.5301 28.0401 26.7104L30.4322 35.1711C30.6165 35.8113 31.0464 36.3526 31.6282 36.6772C31.9132 36.8435 32.2296 36.949 32.5574 36.9872C32.8852 37.0253 33.2173 36.9952 33.5329 36.8987C34.1365 36.7225 34.6526 36.3275 34.9804 35.7908C35.3081 35.2542 35.4238 34.6147 35.3048 33.9972L33.5108 25.1379C33.4675 24.9452 33.4777 24.7444 33.5401 24.557C33.6026 24.3697 33.715 24.203 33.8652 24.0748C34.0105 23.9533 34.1835 23.8695 34.369 23.8308C34.5544 23.7922 34.7465 23.7999 34.9283 23.8533C36.854 24.3245 38.6442 25.2357 40.1583 26.5154C41.6724 27.7951 42.8693 29.4085 43.6547 31.2287C45.6481 36.5886 42.8796 42.4579 41.9936 44.0969L49.5462 70.8743C49.8262 71.8951 49.8664 72.9669 49.6636 74.0058C49.4609 75.0448 49.0206 76.0227 48.3773 76.8633C47.7339 77.704 46.905 78.3844 45.9551 78.8516C45.0053 79.3188 43.9602 79.56 42.9017 79.5565L42.9681 79.5343ZM26.5783 29.2796C24.5195 31.6429 23.428 34.696 23.5219 37.8289C23.8541 40.9075 25.9582 43.6539 29.812 46.0017C30.0399 46.1473 30.2116 46.366 30.2993 46.6218L38.6714 74.0415C38.8423 74.6194 39.1261 75.1577 39.5062 75.6252C39.8864 76.0928 40.3554 76.4805 40.8862 76.7658C41.6841 77.2042 42.594 77.3964 43.5011 77.3181C44.4081 77.2397 45.2717 76.8944 45.9826 76.3256C46.6935 75.7569 47.22 74.9903 47.4955 74.1225C47.7711 73.2548 47.7833 72.3249 47.5307 71.4502L39.7345 44.2962C39.6682 44.0019 39.7157 43.6933 39.8674 43.4325C39.8674 43.4325 43.4997 37.1866 41.5728 32.0482C41.078 30.8104 40.3355 29.6867 39.391 28.746C38.4465 27.8053 37.3198 27.0674 36.08 26.5775L37.4753 33.51C37.7398 34.7153 37.5215 35.9763 36.8672 37.0226C36.2128 38.0689 35.1746 38.8171 33.975 39.1068C32.7755 39.3966 31.5102 39.2048 30.4504 38.5725C29.3906 37.9403 28.6208 36.918 28.3059 35.7248L26.5783 29.2796Z" fill="#464646"/>
</g>
<rect x="0.5" y="0.5" width="99" height="99" stroke="black"/>
<defs>
<clipPath id="clip0_201_502">
<rect width="100" height="100" fill="white"/>
</clipPath>
</defs>
</svg>
